<svg xmlns="http://www.w3.org/2000/svg" width="32" height="31"><path fill="#221141" d="M21 2c3.863 1.966 6.993 4.098 9 8 .188 3.75.188 3.75 0 7-3.01.934-3.867 1.044-7 0l-1 2 4 2c-.321 2.974-.525 4.553-2.742 6.64C19.357 29.99 15.408 29.628 11 29c-4.406-2.163-7.164-4.411-9-9-.71-4.737-.47-8.058 1.688-12.375C8.747 1.881 13.545.913 21 2"/><path fill="#3EB5B7" d="M21 2c3.89 1.98 6.888 4.129 9 8 .188 2.75.188 2.75 0 5-2.892.826-4.887 1-8 1l-1 4-3-1 1-4-1.812 1.063C15 17 15 17 12 16l1-8h4l1-3h-4l-1 2-5-1 1-3c3.71-1.855 7.951-1.454 12-1"/><path fill="#214F81" d="m8 3 1 2c3.247 1.276 5.67.832 9 0l-1 4-4-1-.062 3.813-.036 2.144c.015 2.246.015 2.246 1.098 5.043-2 2-2 2-5.125 2.125L6 21l1-4h3l-1-2H5c-1.312-2.625-1.312-2.625-2-6 1.377-2.435 2.994-3.994 5-6"/><path fill="#246093" d="m19 13 2 1-2 2v3l2 1 1-5 6 1 1-2v4l-6-1-1 2 4 2-1 4-9-3v-4l-2-1z"/><path fill="#46BAB9" d="M28 7c2.152 3.228 2.2 4.284 2 8l-3-2c-2.018-.378-2.018-.378-4.125-.5L19 12l-1-2c3.071-3.363 5.57-4.715 10-3"/><path fill="#330F54" d="M14 18h2v4l8 1v3l-2.75-.062c-2.677.051-4.72.284-7.25 1.062-1.125-2.25-1.125-2.25-2-5 .875-2.312.875-2.312 2-4"/><path fill="#636694" d="m8 3 1 2c3.247 1.276 5.67.832 9 0l-1 4-5-1-1 3-4-1c-.625-2.375-.625-2.375-1-5z"/><path fill="#2A739F" d="M20 12h7l1 4h-6l-1 4-3-1a85 85 0 0 1 2-7"/><path fill="#1F2B67" d="m19 13 2 1-1.5 1.313C17.668 16.997 17.668 16.997 18 20l7 2v3l-9-3v-4l-2-1z"/><path fill="#382D74" d="m5 6 2 1 1 3h4v2c-4.385 3-4.385 3-7 3-1.125-2.812-1.125-2.812-2-6z"/><path fill="#231B58" d="m2 11 3 1v3l4-1 1 3-3 1-2 3v-4l-3-1z"/><path fill="#2C7FA6" d="M13 8h4l-2 4 4 2c-1.812 1.563-1.812 1.563-4 3l-3-1z"/><path fill="#1C2855" d="m28 14 2 1-1 3-2.875-.562c-3.024-.725-3.024-.725-5.125.562l1-3 6 1z"/><path fill="#181452" d="m17 22 7 1v3l-7-2z"/><path fill="#CF3788" d="M8 7h4l-1 4-4-1z"/></svg>