<?xml version="1.0" encoding="UTF-8"?>
<svg version="1.1" xmlns="http://www.w3.org/2000/svg" width="32" height="31">
<path d="M0 0 C3.86261056 1.96641992 6.99327523 4.09803517 9 8 C9.1875 11.75 9.1875 11.75 9 15 C5.98968256 15.93423645 5.13349732 16.04449911 2 15 C1.67 15.66 1.34 16.32 1 17 C2.32 17.66 3.64 18.32 5 19 C4.67853009 21.97359665 4.47473224 23.55294273 2.2578125 25.640625 C-1.64311059 27.98927766 -5.59228547 27.62668927 -10 27 C-14.40617281 24.83696971 -17.1644597 22.58885076 -19 18 C-19.71062194 13.26252043 -19.47089401 9.94178801 -17.3125 5.625 C-12.25221484 -0.11910748 -7.45548254 -1.08725787 0 0 Z " fill="#221141" transform="translate(21,2)"/>
<path d="M0 0 C3.88945509 1.98008623 6.88843482 4.12879717 9 8 C9.1875 10.75 9.1875 10.75 9 13 C6.10765685 13.82638376 4.11257569 14 1 14 C0.67 15.32 0.34 16.64 0 18 C-0.99 17.67 -1.98 17.34 -3 17 C-2.67 15.68 -2.34 14.36 -2 13 C-2.598125 13.350625 -3.19625 13.70125 -3.8125 14.0625 C-6 15 -6 15 -9 14 C-8.67 11.36 -8.34 8.72 -8 6 C-6.68 6 -5.36 6 -4 6 C-3.67 5.01 -3.34 4.02 -3 3 C-4.32 3 -5.64 3 -7 3 C-7.33 3.66 -7.66 4.32 -8 5 C-9.65 4.67 -11.3 4.34 -13 4 C-12.67 3.01 -12.34 2.02 -12 1 C-8.29018719 -0.85490641 -4.04876607 -0.4540091 0 0 Z " fill="#3EB5B7" transform="translate(21,2)"/>
<path d="M0 0 C0.33 0.66 0.66 1.32 1 2 C4.24733335 3.2757381 6.67032582 2.83241855 10 2 C9.67 3.32 9.34 4.64 9 6 C7.68 5.67 6.36 5.34 5 5 C4.979375 6.258125 4.95875 7.51625 4.9375 8.8125 C4.92589844 9.52019531 4.91429687 10.22789063 4.90234375 10.95703125 C4.91736783 13.20305461 4.91736783 13.20305461 6 16 C4 18 4 18 0.875 18.125 C-0.548125 18.063125 -0.548125 18.063125 -2 18 C-1.67 16.68 -1.34 15.36 -1 14 C-0.01 14 0.98 14 2 14 C1.67 13.34 1.34 12.68 1 12 C-0.32 12 -1.64 12 -3 12 C-4.3125 9.375 -4.3125 9.375 -5 6 C-3.62336186 3.56483135 -2.00561708 2.00561708 0 0 Z " fill="#214F81" transform="translate(8,3)"/>
<path d="M0 0 C0.66 0.33 1.32 0.66 2 1 C1.34 1.66 0.68 2.32 0 3 C0 3.99 0 4.98 0 6 C0.66 6.33 1.32 6.66 2 7 C2.33 5.35 2.66 3.7 3 2 C5.97 2.495 5.97 2.495 9 3 C9.33 2.34 9.66 1.68 10 1 C10 2.32 10 3.64 10 5 C7.03 4.505 7.03 4.505 4 4 C3.67 4.66 3.34 5.32 3 6 C4.32 6.66 5.64 7.32 7 8 C6.67 9.32 6.34 10.64 6 12 C3.03 11.01 0.06 10.02 -3 9 C-3 7.68 -3 6.36 -3 5 C-3.66 4.67 -4.32 4.34 -5 4 C-3.35 2.68 -1.7 1.36 0 0 Z " fill="#246093" transform="translate(19,13)"/>
<path d="M0 0 C2.1519437 3.22791555 2.20086443 4.28400809 2 8 C1.01 7.34 0.02 6.68 -1 6 C-3.0179789 5.62152955 -3.0179789 5.62152955 -5.125 5.5 C-6.40375 5.335 -7.6825 5.17 -9 5 C-9.33 4.34 -9.66 3.68 -10 3 C-6.92903321 -0.36343982 -4.43044884 -1.71501246 0 0 Z " fill="#46BAB9" transform="translate(28,7)"/>
<path d="M0 0 C0.66 0 1.32 0 2 0 C2 1.32 2 2.64 2 4 C4.64 4.33 7.28 4.66 10 5 C10 5.99 10 6.98 10 8 C8.63875 7.9690625 8.63875 7.9690625 7.25 7.9375 C4.57327412 7.9889755 2.53011948 8.2215017 0 9 C-1.125 6.75 -1.125 6.75 -2 4 C-1.125 1.6875 -1.125 1.6875 0 0 Z " fill="#330F54" transform="translate(14,18)"/>
<path d="M0 0 C0.33 0.66 0.66 1.32 1 2 C4.24733335 3.2757381 6.67032582 2.83241855 10 2 C9.67 3.32 9.34 4.64 9 6 C7.35 5.67 5.7 5.34 4 5 C3.67 5.99 3.34 6.98 3 8 C1.68 7.67 0.36 7.34 -1 7 C-1.625 4.625 -1.625 4.625 -2 2 C-1.34 1.34 -0.68 0.68 0 0 Z " fill="#636694" transform="translate(8,3)"/>
<path d="M0 0 C2.31 0 4.62 0 7 0 C7.33 1.32 7.66 2.64 8 4 C6.02 4 4.04 4 2 4 C1.67 5.32 1.34 6.64 1 8 C0.01 7.67 -0.98 7.34 -2 7 C-1.42415568 4.61435923 -0.77772405 2.33317216 0 0 Z " fill="#2A739F" transform="translate(20,12)"/>
<path d="M0 0 C0.66 0.33 1.32 0.66 2 1 C1.2575 1.6496875 1.2575 1.6496875 0.5 2.3125 C-1.33218192 3.99740483 -1.33218192 3.99740483 -1 7 C1.31 7.66 3.62 8.32 6 9 C6 9.99 6 10.98 6 12 C3.03 11.01 0.06 10.02 -3 9 C-3 7.68 -3 6.36 -3 5 C-3.66 4.67 -4.32 4.34 -5 4 C-3.35 2.68 -1.7 1.36 0 0 Z " fill="#1F2B67" transform="translate(19,13)"/>
<path d="M0 0 C0.66 0.33 1.32 0.66 2 1 C2.33 1.99 2.66 2.98 3 4 C4.32 4 5.64 4 7 4 C7 4.66 7 5.32 7 6 C2.61538462 9 2.61538462 9 0 9 C-1.125 6.1875 -1.125 6.1875 -2 3 C-1.34 2.01 -0.68 1.02 0 0 Z " fill="#382D74" transform="translate(5,6)"/>
<path d="M0 0 C0.99 0.33 1.98 0.66 3 1 C3 1.99 3 2.98 3 4 C4.32 3.67 5.64 3.34 7 3 C7.33 3.99 7.66 4.98 8 6 C7.01 6.33 6.02 6.66 5 7 C4.01 8.485 4.01 8.485 3 10 C3 8.68 3 7.36 3 6 C2.01 5.67 1.02 5.34 0 5 C0 3.35 0 1.7 0 0 Z " fill="#231B58" transform="translate(2,11)"/>
<path d="M0 0 C1.32 0 2.64 0 4 0 C3.34 1.32 2.68 2.64 2 4 C3.32 4.66 4.64 5.32 6 6 C4.1875 7.5625 4.1875 7.5625 2 9 C1.01 8.67 0.02 8.34 -1 8 C-0.67 5.36 -0.34 2.72 0 0 Z " fill="#2C7FA6" transform="translate(13,8)"/>
<path d="M0 0 C0.66 0.33 1.32 0.66 2 1 C1.67 1.99 1.34 2.98 1 4 C0.05125 3.814375 -0.8975 3.62875 -1.875 3.4375 C-4.89868793 2.71313368 -4.89868793 2.71313368 -7 4 C-6.67 3.01 -6.34 2.02 -6 1 C-3.03 1.495 -3.03 1.495 0 2 C0 1.34 0 0.68 0 0 Z " fill="#1C2855" transform="translate(28,14)"/>
<path d="M0 0 C2.31 0.33 4.62 0.66 7 1 C7 1.99 7 2.98 7 4 C4.69 3.34 2.38 2.68 0 2 C0 1.34 0 0.68 0 0 Z " fill="#181452" transform="translate(17,22)"/>
<path d="M0 0 C1.32 0 2.64 0 4 0 C3.67 1.32 3.34 2.64 3 4 C1.68 3.67 0.36 3.34 -1 3 C-0.67 2.01 -0.34 1.02 0 0 Z " fill="#CF3788" transform="translate(8,7)"/>
</svg>
